<?xml version="1.0" encoding="UTF-8" standalone="no"?>
<!DOCTYPE svg PUBLIC "-//W3C//DTD SVG 1.1//EN"
 "http://www.w3.org/Graphics/SVG/1.1/DTD/svg11.dtd">
<!-- Generated by graphviz version 9.0.0 (20230911.1827)
 -->
<!-- Title: D Pages: 1 -->
<svg width="1070pt" height="812pt"
 viewBox="0.00 0.00 1070.25 811.50" xmlns="http://www.w3.org/2000/svg" xmlns:xlink="http://www.w3.org/1999/xlink">
<g id="graph0" class="graph" transform="scale(1 1) rotate(0) translate(4 807.5)">
<title>D</title>
<polygon fill="white" stroke="none" points="-4,4 -4,-807.5 1066.25,-807.5 1066.25,4 -4,4"/>
<g id="clust1" class="cluster">
<title>cluster_core</title>
<polygon fill="#cbd5e8" stroke="black" points="91.25,-42.75 91.25,-740.5 480.25,-740.5 480.25,-42.75 91.25,-42.75"/>
<text text-anchor="middle" x="285.75" y="-87.8" font-family="Courier New" font-size="16.00">Serveur principal</text>
<text text-anchor="middle" x="285.75" y="-69.05" font-family="Courier New" font-size="16.00">RPi 3 + Hifiberry Digi+</text>
<text text-anchor="middle" x="285.75" y="-50.3" font-family="Courier New" font-size="16.00">Amplificateur en Enceintes HiFi</text>
</g>
<g id="clust2" class="cluster">
<title>cluster_rpi3</title>
<polygon fill="#b3e2cd" stroke="black" points="99.25,-428.75 99.25,-732.5 472.25,-732.5 472.25,-428.75 99.25,-428.75"/>
<text text-anchor="middle" x="285.75" y="-436.3" font-family="Courier New" font-size="16.00">Raspberry Pi 3</text>
</g>
<g id="clust3" class="cluster">
<title>cluster_lite</title>
<polygon fill="#cbd5e8" stroke="black" points="488.25,-8 488.25,-515.5 767.25,-515.5 767.25,-8 488.25,-8"/>
<text text-anchor="middle" x="627.75" y="-53.05" font-family="Courier New" font-size="16.00">Multiroom lite</text>
<text text-anchor="middle" x="627.75" y="-34.3" font-family="Courier New" font-size="16.00">RPi Zero W + Audio DAC Shim</text>
<text text-anchor="middle" x="627.75" y="-15.55" font-family="Courier New" font-size="16.00">Enceintes amplifiées</text>
</g>
<g id="clust4" class="cluster">
<title>cluster_client_lineout</title>
<polygon fill="#b3e2cd" stroke="black" points="496.25,-331 496.25,-507.5 664.25,-507.5 664.25,-331 496.25,-331"/>
<text text-anchor="middle" x="580.25" y="-338.55" font-family="Courier New" font-size="16.00">RPi Zero W</text>
</g>
<g id="clust5" class="cluster">
<title>cluster_amplified_speakers</title>
<polygon fill="#b3e2cd" stroke="black" points="499.25,-80.25 499.25,-275.5 710.25,-275.5 710.25,-80.25 499.25,-80.25"/>
<text text-anchor="middle" x="604.75" y="-87.8" font-family="Courier New" font-size="16.00">Enceintes amplifiées</text>
</g>
<g id="clust6" class="cluster">
<title>cluster_speaker</title>
<polygon fill="#cbd5e8" stroke="black" points="775.25,-178 775.25,-515.5 1054.25,-515.5 1054.25,-178 775.25,-178"/>
<text text-anchor="middle" x="914.75" y="-204.3" font-family="Courier New" font-size="16.00">Multiroom intégré</text>
<text text-anchor="middle" x="914.75" y="-185.55" font-family="Courier New" font-size="16.00">RPi Zero W + Ampli 25W + HP</text>
</g>
<g id="clust7" class="cluster">
<title>cluster_client_speaker</title>
<polygon fill="#b3e2cd" stroke="black" points="783.25,-331 783.25,-507.5 991.25,-507.5 991.25,-331 783.25,-331"/>
<text text-anchor="middle" x="887.25" y="-338.55" font-family="Courier New" font-size="16.00">RPi Zero</text>
</g>
<!-- audio_source_bluetooth -->
<g id="node1" class="node device">
<title>audio_source_bluetooth</title>
<path fill="none" stroke="black" d="M218.5,-803.5C218.5,-803.5 12,-803.5 12,-803.5 6,-803.5 0,-797.5 0,-791.5 0,-791.5 0,-779.5 0,-779.5 0,-773.5 6,-767.5 12,-767.5 12,-767.5 218.5,-767.5 218.5,-767.5 224.5,-767.5 230.5,-773.5 230.5,-779.5 230.5,-779.5 230.5,-791.5 230.5,-791.5 230.5,-797.5 224.5,-803.5 218.5,-803.5"/>
<text text-anchor="middle" x="115.25" y="-779.67" font-family="Courier New" font-size="16.00">Source audio Bluetooth</text>
</g>
<!-- bluealsa -->
<g id="node4" class="node device">
<title>bluealsa</title>
<polygon fill="#fdcdac" stroke="black" points="201.25,-724.5 107.25,-724.5 107.25,-688.5 201.25,-688.5 201.25,-724.5"/>
<text text-anchor="middle" x="154.25" y="-700.67" font-family="Courier New" font-size="16.00">BlueAlsa</text>
</g>
<!-- audio_source_bluetooth&#45;&gt;bluealsa -->
<g id="edge6" class="edge">
<title>audio_source_bluetooth&#45;&gt;bluealsa</title>
<path fill="none" stroke="black" d="M124.1,-767.03C128.89,-757.58 134.91,-745.69 140.31,-735.02"/>
<polygon fill="black" stroke="black" points="143.36,-736.76 144.75,-726.25 137.11,-733.59 143.36,-736.76"/>
</g>
<!-- audio_source_internet -->
<g id="node2" class="node device">
<title>audio_source_internet</title>
<path fill="none" stroke="black" d="M330.25,-803.5C330.25,-803.5 260.25,-803.5 260.25,-803.5 254.25,-803.5 248.25,-797.5 248.25,-791.5 248.25,-791.5 248.25,-779.5 248.25,-779.5 248.25,-773.5 254.25,-767.5 260.25,-767.5 260.25,-767.5 330.25,-767.5 330.25,-767.5 336.25,-767.5 342.25,-773.5 342.25,-779.5 342.25,-779.5 342.25,-791.5 342.25,-791.5 342.25,-797.5 336.25,-803.5 330.25,-803.5"/>
<text text-anchor="middle" x="295.25" y="-779.67" font-family="Courier New" font-size="16.00">Internet</text>
</g>
<!-- spotify -->
<g id="node6" class="node device">
<title>spotify</title>
<polygon fill="#fdcdac" stroke="black" points="371.5,-724.5 219,-724.5 219,-688.5 371.5,-688.5 371.5,-724.5"/>
<text text-anchor="middle" x="295.25" y="-700.67" font-family="Courier New" font-size="16.00">Spotify Client</text>
</g>
<!-- audio_source_internet&#45;&gt;spotify -->
<g id="edge7" class="edge">
<title>audio_source_internet&#45;&gt;spotify</title>
<path fill="none" stroke="black" d="M295.25,-767.03C295.25,-757.97 295.25,-746.67 295.25,-736.36"/>
<polygon fill="black" stroke="black" points="298.75,-736.42 295.25,-726.42 291.75,-736.42 298.75,-736.42"/>
</g>
<!-- audio_source_local -->
<g id="node3" class="node device">
<title>audio_source_local</title>
<path fill="none" stroke="black" d="M559.75,-803.5C559.75,-803.5 372.75,-803.5 372.75,-803.5 366.75,-803.5 360.75,-797.5 360.75,-791.5 360.75,-791.5 360.75,-779.5 360.75,-779.5 360.75,-773.5 366.75,-767.5 372.75,-767.5 372.75,-767.5 559.75,-767.5 559.75,-767.5 565.75,-767.5 571.75,-773.5 571.75,-779.5 571.75,-779.5 571.75,-791.5 571.75,-791.5 571.75,-797.5 565.75,-803.5 559.75,-803.5"/>
<text text-anchor="middle" x="466.25" y="-779.67" font-family="Courier New" font-size="16.00">Source réseau locale</text>
</g>
<!-- player -->
<g id="node7" class="node device">
<title>player</title>
<polygon fill="#fdcdac" stroke="black" points="464.5,-724.5 390,-724.5 390,-688.5 464.5,-688.5 464.5,-724.5"/>
<text text-anchor="middle" x="427.25" y="-700.67" font-family="Courier New" font-size="16.00">Player</text>
</g>
<!-- audio_source_local&#45;&gt;player -->
<g id="edge8" class="edge">
<title>audio_source_local&#45;&gt;player</title>
<path fill="none" stroke="black" d="M457.4,-767.03C452.61,-757.58 446.59,-745.69 441.19,-735.02"/>
<polygon fill="black" stroke="black" points="444.39,-733.59 436.75,-726.25 438.14,-736.76 444.39,-733.59"/>
</g>
<!-- alsa -->
<g id="node5" class="node device">
<title>alsa</title>
<polygon fill="#fdcdac" stroke="black" points="359.75,-651.5 304.75,-651.5 304.75,-615.5 359.75,-615.5 359.75,-651.5"/>
<text text-anchor="middle" x="332.25" y="-627.67" font-family="Courier New" font-size="16.00">Alsa</text>
</g>
<!-- bluealsa&#45;&gt;alsa -->
<g id="edge1" class="edge">
<title>bluealsa&#45;&gt;alsa</title>
<path fill="none" stroke="black" d="M197.79,-688.13C227.14,-676.43 265.5,-661.12 293.74,-649.86"/>
<polygon fill="black" stroke="black" points="295,-653.12 303,-646.17 292.41,-646.62 295,-653.12"/>
</g>
<!-- audio_server -->
<g id="node8" class="node device">
<title>audio_server</title>
<polygon fill="#fdcdac" stroke="black" points="451,-578.5 337.5,-578.5 337.5,-542.5 451,-542.5 451,-578.5"/>
<text text-anchor="middle" x="394.25" y="-554.67" font-family="Courier New" font-size="16.00">Snapserver</text>
</g>
<!-- alsa&#45;&gt;audio_server -->
<g id="edge3" class="edge">
<title>alsa&#45;&gt;audio_server</title>
<path fill="none" stroke="black" d="M347.26,-615.31C354.65,-606.85 363.7,-596.48 371.88,-587.11"/>
<polygon fill="black" stroke="black" points="374.44,-589.5 378.38,-579.67 369.17,-584.9 374.44,-589.5"/>
</g>
<!-- spotify&#45;&gt;alsa -->
<g id="edge2" class="edge">
<title>spotify&#45;&gt;alsa</title>
<path fill="none" stroke="black" d="M304.21,-688.31C308.39,-680.29 313.46,-670.55 318.14,-661.57"/>
<polygon fill="black" stroke="black" points="321.16,-663.36 322.68,-652.87 314.95,-660.12 321.16,-663.36"/>
</g>
<!-- player&#45;&gt;alsa -->
<g id="edge11" class="edge">
<title>player&#45;&gt;alsa</title>
<path fill="none" stroke="black" d="M404.25,-688.31C392.32,-679.4 377.55,-668.36 364.5,-658.6"/>
<polygon fill="black" stroke="black" points="366.68,-655.86 356.58,-652.68 362.49,-661.47 366.68,-655.86"/>
</g>
<!-- audio_client_c -->
<g id="node9" class="node device">
<title>audio_client_c</title>
<polygon fill="#fdcdac" stroke="black" points="437,-499.5 323.5,-499.5 323.5,-463.5 437,-463.5 437,-499.5"/>
<text text-anchor="middle" x="380.25" y="-475.68" font-family="Courier New" font-size="16.00">Snapclient</text>
</g>
<!-- audio_server&#45;&gt;audio_client_c -->
<g id="edge4" class="edge">
<title>audio_server&#45;&gt;audio_client_c</title>
<path fill="none" stroke="black" d="M391.07,-542.03C389.41,-532.87 387.33,-521.43 385.44,-511.03"/>
<polygon fill="black" stroke="black" points="388.92,-510.61 383.69,-501.39 382.03,-511.86 388.92,-510.61"/>
</g>
<!-- audio_client_cl -->
<g id="node13" class="node device">
<title>audio_client_cl</title>
<polygon fill="#fdcdac" stroke="black" points="627,-499.5 513.5,-499.5 513.5,-463.5 627,-463.5 627,-499.5"/>
<text text-anchor="middle" x="570.25" y="-475.68" font-family="Courier New" font-size="16.00">Snapclient</text>
</g>
<!-- audio_server&#45;&gt;audio_client_cl -->
<g id="edge13" class="edge">
<title>audio_server&#45;&gt;audio_client_cl</title>
<path fill="none" stroke="black" d="M434.19,-542.03C459.62,-530.9 492.77,-516.4 519.98,-504.49"/>
<polygon fill="black" stroke="black" points="521.33,-507.72 529.08,-500.51 518.52,-501.31 521.33,-507.72"/>
</g>
<!-- audio_client_cs -->
<g id="node17" class="node">
<title>audio_client_cs</title>
<polygon fill="#fdcdac" stroke="black" points="924,-499.5 810.5,-499.5 810.5,-463.5 924,-463.5 924,-499.5"/>
<text text-anchor="middle" x="867.25" y="-475.68" font-family="Courier New" font-size="16.00">Snapclient</text>
</g>
<!-- audio_server&#45;&gt;audio_client_cs -->
<g id="edge18" class="edge">
<title>audio_server&#45;&gt;audio_client_cs</title>
<path fill="none" stroke="black" d="M451.47,-550.4C506.91,-541.56 593.36,-527.72 668.25,-515.5 711.82,-508.39 760.73,-500.28 799.16,-493.88"/>
<polygon fill="black" stroke="black" points="799.44,-497.38 808.73,-492.29 798.29,-490.48 799.44,-497.38"/>
</g>
<!-- hifiberry_c -->
<g id="node10" class="node device">
<title>hifiberry_c</title>
<polygon fill="#b3e2cd" stroke="black" points="430.38,-401.75 268.12,-401.75 268.12,-365.75 430.38,-365.75 430.38,-401.75"/>
<text text-anchor="middle" x="349.25" y="-377.93" font-family="Courier New" font-size="16.00">Hifiberry&#45;Digi+</text>
</g>
<!-- audio_client_c&#45;&gt;hifiberry_c -->
<g id="edge5" class="edge">
<title>audio_client_c&#45;&gt;hifiberry_c</title>
<path fill="none" stroke="black" d="M374.71,-463.38C370.15,-449.31 363.6,-429.09 358.29,-412.67"/>
<polygon fill="black" stroke="black" points="361.73,-411.92 355.31,-403.48 355.07,-414.07 361.73,-411.92"/>
</g>
<!-- amplifier_c -->
<g id="node11" class="node device">
<title>amplifier_c</title>
<polygon fill="#b3e2cd" stroke="black" points="392,-267.5 278.5,-267.5 278.5,-231.5 392,-231.5 392,-267.5"/>
<text text-anchor="middle" x="335.25" y="-243.68" font-family="Courier New" font-size="16.00">Ampli Hifi</text>
</g>
<!-- hifiberry_c&#45;&gt;amplifier_c -->
<g id="edge9" class="edge">
<title>hifiberry_c&#45;&gt;amplifier_c</title>
<path fill="none" stroke="black" d="M347.42,-365.46C345.09,-343.48 341.04,-305.24 338.26,-278.94"/>
<polygon fill="black" stroke="black" points="341.77,-278.87 337.24,-269.3 334.81,-279.61 341.77,-278.87"/>
<text text-anchor="middle" x="410.5" y="-307.8" font-family="Courier New" font-size="16.00">Lien numérique</text>
<text text-anchor="middle" x="410.5" y="-289.05" font-family="Courier New" font-size="16.00">Fibre optique</text>
</g>
<!-- speaker_c -->
<g id="node12" class="node device">
<title>speaker_c</title>
<polygon fill="#b3e2cd" stroke="black" points="411.5,-151 259,-151 259,-115 411.5,-115 411.5,-151"/>
<text text-anchor="middle" x="335.25" y="-127.17" font-family="Courier New" font-size="16.00">Enceintes Hifi</text>
</g>
<!-- amplifier_c&#45;&gt;speaker_c -->
<g id="edge10" class="edge">
<title>amplifier_c&#45;&gt;speaker_c</title>
<path fill="none" stroke="black" d="M335.25,-231.11C335.25,-212.93 335.25,-184.11 335.25,-162.58"/>
<polygon fill="black" stroke="black" points="338.75,-162.69 335.25,-152.69 331.75,-162.69 338.75,-162.69"/>
</g>
<!-- line_out_cl -->
<g id="node14" class="node device">
<title>line_out_cl</title>
<polygon fill="#fdcdac" stroke="black" points="656.5,-401.75 504,-401.75 504,-365.75 656.5,-365.75 656.5,-401.75"/>
<text text-anchor="middle" x="580.25" y="-377.93" font-family="Courier New" font-size="16.00">Audio DAC SHIM</text>
</g>
<!-- audio_client_cl&#45;&gt;line_out_cl -->
<g id="edge12" class="edge">
<title>audio_client_cl&#45;&gt;line_out_cl</title>
<path fill="none" stroke="black" d="M572.04,-463.38C573.49,-449.44 575.58,-429.47 577.28,-413.15"/>
<polygon fill="black" stroke="black" points="580.73,-413.86 578.29,-403.55 573.77,-413.13 580.73,-413.86"/>
</g>
<!-- amplifier_cl -->
<g id="node15" class="node device">
<title>amplifier_cl</title>
<polygon fill="#fdcdac" stroke="black" points="612.62,-267.5 547.88,-267.5 547.88,-231.5 612.62,-231.5 612.62,-267.5"/>
<text text-anchor="middle" x="580.25" y="-243.68" font-family="Courier New" font-size="16.00">Ampli</text>
</g>
<!-- line_out_cl&#45;&gt;amplifier_cl -->
<g id="edge14" class="edge">
<title>line_out_cl&#45;&gt;amplifier_cl</title>
<path fill="none" stroke="black" d="M580.25,-365.46C580.25,-343.58 580.25,-305.58 580.25,-279.29"/>
<polygon fill="black" stroke="black" points="583.75,-279.31 580.25,-269.31 576.75,-279.31 583.75,-279.31"/>
<text text-anchor="middle" x="653.38" y="-307.8" font-family="Courier New" font-size="16.00">Lien analogique</text>
<text text-anchor="middle" x="653.38" y="-289.05" font-family="Courier New" font-size="16.00">(mini&#45;jack)</text>
</g>
<!-- speaker_cl -->
<g id="node16" class="node">
<title>speaker_cl</title>
<polygon fill="#fdcdac" stroke="black" points="651.62,-151 508.88,-151 508.88,-115 651.62,-115 651.62,-151"/>
<text text-anchor="middle" x="580.25" y="-127.17" font-family="Courier New" font-size="16.00">Haut parleurs</text>
</g>
<!-- amplifier_cl&#45;&gt;speaker_cl -->
<g id="edge15" class="edge">
<title>amplifier_cl&#45;&gt;speaker_cl</title>
<path fill="none" stroke="black" d="M580.25,-231.11C580.25,-212.93 580.25,-184.11 580.25,-162.58"/>
<polygon fill="black" stroke="black" points="583.75,-162.69 580.25,-152.69 576.75,-162.69 583.75,-162.69"/>
</g>
<!-- digiamp -->
<g id="node18" class="node">
<title>digiamp</title>
<polygon fill="#fdcdac" stroke="black" points="983,-401.75 791.5,-401.75 791.5,-365.75 983,-365.75 983,-401.75"/>
<text text-anchor="middle" x="887.25" y="-377.93" font-family="Courier New" font-size="16.00">Rapsberry DigiAmp+</text>
</g>
<!-- audio_client_cs&#45;&gt;digiamp -->
<g id="edge16" class="edge">
<title>audio_client_cs&#45;&gt;digiamp</title>
<path fill="none" stroke="black" d="M870.83,-463.38C873.74,-449.44 877.91,-429.47 881.32,-413.15"/>
<polygon fill="black" stroke="black" points="884.71,-414.03 883.33,-403.52 877.86,-412.6 884.71,-414.03"/>
</g>
<!-- speaker_cs -->
<g id="node19" class="node">
<title>speaker_cs</title>
<polygon fill="#b3e2cd" stroke="black" points="958.62,-267.5 815.88,-267.5 815.88,-231.5 958.62,-231.5 958.62,-267.5"/>
<text text-anchor="middle" x="887.25" y="-243.68" font-family="Courier New" font-size="16.00">Haut parleurs</text>
</g>
<!-- digiamp&#45;&gt;speaker_cs -->
<g id="edge17" class="edge">
<title>digiamp&#45;&gt;speaker_cs</title>
<path fill="none" stroke="black" d="M887.25,-365.46C887.25,-343.58 887.25,-305.58 887.25,-279.29"/>
<polygon fill="black" stroke="black" points="890.75,-279.31 887.25,-269.31 883.75,-279.31 890.75,-279.31"/>
<text text-anchor="middle" x="960.38" y="-298.43" font-family="Courier New" font-size="16.00">Cablage interne</text>
</g>
</g>
</svg>
